<?xml version="1.0" encoding="UTF-8"?>
<svg xmlns="http://www.w3.org/2000/svg" version="1.1" viewBox="0 0 92.1 30.7">
  <defs>
    <style>
      .cls-1 {
        fill: #fff;
      }
    </style>
  </defs>
  <!-- Generator: Adobe Illustrator 28.6.0, SVG Export Plug-In . SVG Version: 1.2.0 Build 709)  -->
  <g>
    <g id="Layer_1">
      <path id="typo" class="cls-1" d="M17.2,0l-1.1,5.6h-5.4l-2.4,25.1H3.1L5.6,5.6H0L.6,0h16.6ZM27.9,30.7l1.3-13.2h-6.5l-1.3,13.2h-5.1L19.3,0h5.1l-1.2,11.9h6.5L30.9,0h5.2l-3.1,30.7h-5.1ZM53.5,0l-1,5.2h-7.7l-.7,7.4h6.7l-.5,5.1h-6.7l-.8,7.8h8.2l-.5,5.2h-13.4L40.2,0h13.3ZM71.9,4c1.4,2.7,1.9,6.4,1.4,11.3-.2,2.8-.9,5.6-2,8.2-.9,2.1-2.2,3.9-4,5.3-1.6,1.2-3.5,1.9-5.5,1.8-1.9.1-3.7-.6-5-1.8-1.5-1.4-2.4-3.3-2.8-5.3-.6-2.7-.7-5.5-.3-8.3.2-2.8.9-5.6,2-8.2.8-2.1,2.2-3.9,3.9-5.3C61.2.6,63.1,0,65.1,0c2.9-.1,5.5,1.4,6.8,4ZM61,7.5c-.9,1.6-1.5,4.2-1.9,7.8-.4,3.6-.3,6.2.3,7.9.3,1.4,1.6,2.4,3,2.5,1.6,0,3-1,3.6-2.4.9-1.6,1.5-4.2,1.9-7.9s.3-6.2-.3-7.8c-.3-1.4-1.6-2.4-3.1-2.4-1.5-.1-2.9.9-3.5,2.3ZM89.1.9c1.2.7,2.2,1.7,3,2.8l-2.8,3.8c-1-1.5-2.7-2.4-4.5-2.5-.8,0-1.6.2-2.2.7s-1,1.3-1,2.1c0,.5,0,1.1.2,1.6.3.5.6.9,1.1,1.2.8.5,1.6.9,2.5,1.3,1.8.7,3.4,1.9,4.5,3.5.9,1.4,1.2,3.4,1,5.9,0,1.7-.7,3.4-1.5,4.8s-2,2.5-3.4,3.3-3.1,1.2-4.7,1.2-3.2-.4-4.6-1.1c-1.3-.7-2.4-1.8-3.2-3l3-3.9c.6.9,1.4,1.6,2.4,2.2.9.5,1.8.7,2.8.7s1.9-.3,2.6-1c.7-.5,1.1-1.5,1.2-2.5,0-.6,0-1.2-.2-1.8-.2-.5-.5-1-1-1.3-.7-.5-1.5-1-2.3-1.3-1.9-.7-3.6-2-4.8-3.6-.9-1.7-1.2-3.6-.9-5.4,0-1.6.6-3.1,1.4-4.5.8-1.3,1.8-2.3,3.1-3,2.6-1.4,5.7-1.5,8.3-.2h0Z"/>
    </g>
  </g>
</svg>