<?xml version="1.0" encoding="UTF-8"?>
<svg id="Layer_2" xmlns="http://www.w3.org/2000/svg" viewBox="0 0 204.59 204.59">
  <defs>
    <style>
      .cls-1 {
        fill: #231f20;
      }

      .cls-2 {
        fill: #fff;
      }
    </style>
  </defs>
  <g id="typo">
    <g>
      <circle class="cls-1" cx="102.29" cy="102.29" r="102.29"/>
      <path class="cls-2" d="M149.24,84.54c-.16-19.69-3.87-34.59-11.04-44.56-7.17-10.13-17.54-15.07-31.38-15.07-7.66,0-14.5,1.4-20.51,4.2-5.93,3.05-10.46,7-13.67,12.27-3.13,5.27-4.86,11.61-4.86,18.62,0,8.4,2.47,15.57,7,21.66,4.53,6.01,11.78,10.71,21.42,14.25,9.23,3.29,20.43,5.02,33.44,5.27,0,7.66-.74,15.07-2.14,22.24-1.4,7.17-3.29,13.51-5.77,19.27-2.47,5.6-5.44,10.13-8.73,13.43-5.11,5.11-10.87,7.58-17.38,7.58-4.53,0-8.24-1.07-10.87-3.54-2.64-2.22-4.04-5.6-4.04-10.13,0-3.46.74-8.07,2.31-14,1.4-5.93,2.14-10.54,2.14-13.84,0-5.93-1.98-10.87-5.44-14.17-3.71-3.54-8.98-5.11-15.65-5.11-5.93,0-12.27,1.73-19.27,5.44l1.81,16.31c2.55-1.65,5.19-2.64,7.66-3.54,2.31-.66,4.37-1.24,5.93-1.24,4.04,0,6.01,2.14,6.01,6.01,0,2.39-.74,6.42-2.14,12.44-1.4,5.93-2.22,10.46-2.22,13.59,0,9.14,2.97,15.98,8.57,20.67,5.6,4.78,14,7.08,25.04,7.08,10.3,0,19.44-3.21,27.51-9.47,7.91-6.18,14.17-15.49,18.94-27.68,4.53-12.27,7-26.11,7.33-41.35h10.54v-16.64h-10.54ZM98.75,78.04c-7.17-4.37-10.79-10.54-10.79-18.62,0-6.1,1.56-10.63,4.86-13.84,3.13-2.97,7.91-4.53,14.17-4.53,3.71,0,7,1.07,10.05,3.13,2.8,2.14,5.19,5.11,7.17,8.98,3.87,7.5,5.6,18.04,5.6,31.38-13.34,0-23.64-2.14-31.05-6.51Z"/>
    </g>
  </g>
</svg>